<?xml version="1.0" encoding="utf-8"?>
<!-- Generator: Adobe Illustrator 16.0.0, SVG Export Plug-In . SVG Version: 6.00 Build 0)  -->
<!DOCTYPE svg PUBLIC "-//W3C//DTD SVG 1.1//EN" "http://www.w3.org/Graphics/SVG/1.1/DTD/svg11.dtd">
<svg version="1.1" id="Ebene_1" xmlns="http://www.w3.org/2000/svg" xmlns:xlink="http://www.w3.org/1999/xlink" x="0px" y="0px"
	 width="150.493px" height="27.552px" viewBox="0 0 150.493 27.552" enable-background="new 0 0 150.493 27.552"
	 xml:space="preserve">
<g>
	<polygon fill="#E73E21" points="17.833,0.298 20.872,4.795 17.289,13.798 12.446,13.798 	"/>
	<polygon fill="#E73E21" points="59.525,4.795 57.732,9.294 57.726,9.294 54.693,4.795 	"/>
	<path fill="#E73E21" d="M137.009,16.498h-8.7l-0.605-0.903h9.663l4.305-10.8h4.832l0.561-1.413
		c0.285-0.705,0.188-1.465-0.194-2.056l3.012,4.462c0.42,0.618,0.499,1.402,0.223,2.102l-0.561,1.412h-4.832l-6.614,16.585
		c-0.339,0.85-1.168,1.411-2.087,1.411h-8.147l-3.031-4.506h8.141c0.917,0,1.746-0.554,2.086-1.412L137.009,16.498z"/>
	<path fill="#E73E21" d="M117.674,16.498h-4.468v-0.903h4.833l6.097-15.296l3.04,4.497l-8.406,21.092
		c-0.348,0.85-1.167,1.411-2.086,1.411H98.873l-3.031-4.506h17.803c0.917,0,1.747-0.554,2.085-1.412L117.674,16.498z"/>
	<polygon fill="#E73E21" points="108.011,16.498 99.319,16.498 98.712,15.595 108.374,15.595 114.474,0.298 117.513,4.795 
		113.206,15.595 113.206,16.498 112.842,16.498 112.129,18.296 107.297,18.296 	"/>
	<polygon fill="#E73E21" points="88.684,16.498 79.992,16.498 79.377,15.595 89.049,15.595 93.354,4.795 98.187,4.795 99.978,0.298 
		103.019,4.795 101.217,9.302 96.385,9.302 92.803,18.296 87.972,18.296 	"/>
	<path fill="#E73E21" d="M78.994,22.633c0.258,0.104,0.542,0.159,0.829,0.159H91.01l1.793-4.496l3.039,4.496l-1.801,4.506H82.862
		c-0.749,0-1.443-0.375-1.863-0.992l-3.013-4.46C78.236,22.186,78.574,22.471,78.994,22.633z"/>
	<path fill="#E73E21" d="M64.524,16.498h-8.699l-0.606-0.903h9.663l4.306-10.8h4.841l0.562-1.413
		c0.285-0.714,0.179-1.483-0.214-2.073l3.021,4.479c0.42,0.618,0.509,1.402,0.233,2.102L77.06,9.302h-4.832l-6.615,16.585
		c-0.339,0.85-1.157,1.411-2.076,1.411h-8.148l-3.04-4.506h8.147c0.919,0,1.739-0.554,2.087-1.412L64.524,16.498z"/>
	<path fill="#E73E21" d="M45.198,16.498h-4.474v-0.903h4.831l6.106-15.296l3.031,4.497l-8.406,21.092
		c-0.34,0.85-1.168,1.411-2.078,1.411H26.398l-3.04-4.506H41.17c0.917,0,1.738-0.554,2.077-1.412L45.198,16.498z"/>
	<polygon fill="#E73E21" points="35.535,16.498 26.229,16.498 26.229,15.595 35.893,15.595 40.197,4.795 45.029,4.795 
		40.725,15.595 40.725,16.498 40.367,16.498 39.645,18.296 34.813,18.296 	"/>
	<polygon fill="#E73E21" points="21.041,16.498 2.678,16.498 2.071,15.595 21.398,15.595 27.496,0.298 30.534,4.795 26.229,15.595 
		26.229,16.498 25.873,16.498 23.358,22.792 21.566,27.298 16.735,27.298 13.695,22.792 18.527,22.792 	"/>
	<path fill="#E73E21" d="M3.693,26.306l-3.04-4.496c0.251,0.356,0.599,0.652,1.025,0.823c0.269,0.104,0.544,0.159,0.83,0.159h6.354
		l1.792-4.496h4.832l-1.792,4.496l-1.792,4.506H5.547C4.808,27.298,4.112,26.923,3.693,26.306z"/>
	<path fill="none" stroke="#E73E21" stroke-width="0.5" stroke-linecap="round" stroke-linejoin="round" stroke-miterlimit="10" d="
		M2.071,15.595L7.606,1.712c0.34-0.852,1.168-1.414,2.086-1.414h8.141l-5.387,13.5h4.843l3.583-9.003l1.791-4.497h4.833
		l-6.098,15.296"/>
	<path fill="none" stroke="#E73E21" stroke-width="0.5" stroke-linecap="round" stroke-linejoin="round" stroke-miterlimit="10" d="
		M21.041,16.498l-2.514,6.294h-4.832l1.792-4.496h-4.832l-1.792,4.496H2.509c-0.286,0-0.562-0.055-0.83-0.159
		c-0.427-0.171-0.774-0.467-1.025-0.823c-0.401-0.598-0.517-1.379-0.224-2.102l1.286-3.21"/>
	<path fill="none" stroke="#E73E21" stroke-width="0.5" stroke-linecap="round" stroke-linejoin="round" stroke-miterlimit="10" d="
		M79.377,15.595l5.545-13.883c0.339-0.852,1.158-1.414,2.077-1.414h12.979l-1.791,4.497h-4.833l-4.305,10.8"/>
	<path fill="none" stroke="#E73E21" stroke-width="0.5" stroke-linecap="round" stroke-linejoin="round" stroke-miterlimit="10" d="
		M77.969,21.81c-0.401-0.598-0.517-1.379-0.232-2.102l1.284-3.21"/>
	<path fill="none" stroke="#E73E21" stroke-width="0.5" stroke-linecap="round" stroke-linejoin="round" stroke-miterlimit="10" d="
		M88.684,16.498l-0.712,1.798h4.831l-1.793,4.496H79.823c-0.287,0-0.571-0.055-0.829-0.159c-0.42-0.162-0.758-0.447-1.008-0.787"/>
	<path fill="none" stroke="#E73E21" stroke-width="0.5" stroke-linecap="round" stroke-linejoin="round" stroke-miterlimit="10" d="
		M98.712,15.595l2.505-6.293l1.802-4.507l1.229-3.083c0.338-0.852,1.17-1.414,2.077-1.414h8.148l-6.1,15.296"/>
	
		<polyline fill="none" stroke="#E73E21" stroke-width="0.5" stroke-linecap="round" stroke-linejoin="round" stroke-miterlimit="10" points="
		108.011,16.498 107.297,18.296 112.129,18.296 112.842,16.498 	"/>
	
		<polyline fill="none" stroke="#E73E21" stroke-width="0.5" stroke-linecap="round" stroke-linejoin="round" stroke-miterlimit="10" points="
		113.206,15.595 117.513,4.795 119.305,0.298 124.136,0.298 118.039,15.595 	"/>
	<path fill="none" stroke="#E73E21" stroke-width="0.5" stroke-linecap="round" stroke-linejoin="round" stroke-miterlimit="10" d="
		M117.674,16.498l-1.944,4.882c-0.338,0.858-1.168,1.412-2.085,1.412H95.842l2.504-6.294"/>
	
		<polyline fill="none" stroke="#E73E21" stroke-width="0.5" stroke-linecap="round" stroke-linejoin="round" stroke-miterlimit="10" points="
		128.968,0.298 127.176,4.795 132.008,4.795 130.216,9.302 127.703,15.595 	"/>
	<path fill="none" stroke="#E73E21" stroke-width="0.5" stroke-linecap="round" stroke-linejoin="round" stroke-miterlimit="10" d="
		M127.346,16.498l-2.515,6.294h8.141c0.917,0,1.746-0.554,2.086-1.412l1.951-4.882"/>
	<path fill="none" stroke="#E73E21" stroke-width="0.5" stroke-linecap="round" stroke-linejoin="round" stroke-miterlimit="10" d="
		M146.841,1.29c-0.24-0.357-0.587-0.652-1.024-0.831c-0.268-0.107-0.545-0.161-0.829-0.161h-16.02"/>
	<path fill="none" stroke="#E73E21" stroke-width="0.5" stroke-linecap="round" stroke-linejoin="round" stroke-miterlimit="10" d="
		M137.366,15.595l4.305-10.8h4.832l0.561-1.413c0.285-0.705,0.188-1.465-0.194-2.056"/>
	
		<line fill="none" stroke="#E73E21" stroke-width="0.5" stroke-linecap="round" stroke-linejoin="round" stroke-miterlimit="10" x1="51.662" y1="0.298" x2="45.556" y2="15.595"/>
	<path fill="none" stroke="#E73E21" stroke-width="0.5" stroke-linecap="round" stroke-linejoin="round" stroke-miterlimit="10" d="
		M45.198,16.498l-1.951,4.882c-0.339,0.858-1.16,1.412-2.077,1.412H23.358l2.515-6.294"/>
	<path fill="none" stroke="#E73E21" stroke-width="0.5" stroke-linecap="round" stroke-linejoin="round" stroke-miterlimit="10" d="
		M26.229,15.595l4.305-10.8l1.231-3.083c0.339-0.852,1.166-1.414,2.085-1.414h17.812"/>
	
		<polyline fill="none" stroke="#E73E21" stroke-width="0.5" stroke-linecap="round" stroke-linejoin="round" stroke-miterlimit="10" points="
		56.493,0.298 54.693,4.795 59.525,4.795 57.732,9.294 55.219,15.595 	"/>
	<path fill="none" stroke="#E73E21" stroke-width="0.5" stroke-linecap="round" stroke-linejoin="round" stroke-miterlimit="10" d="
		M54.861,16.498l-2.514,6.294h8.147c0.919,0,1.739-0.554,2.087-1.412l1.942-4.882"/>
	<path fill="none" stroke="#E73E21" stroke-width="0.5" stroke-linecap="round" stroke-linejoin="round" stroke-miterlimit="10" d="
		M74.367,1.29c-0.241-0.357-0.597-0.652-1.025-0.831c-0.268-0.107-0.553-0.161-0.837-0.161H56.493"/>
	<path fill="none" stroke="#E73E21" stroke-width="0.5" stroke-linecap="round" stroke-linejoin="round" stroke-miterlimit="10" d="
		M64.882,15.595l4.306-10.8h4.841l0.562-1.413c0.285-0.714,0.179-1.483-0.214-2.073"/>
	
		<polyline fill="none" stroke="#E73E21" stroke-width="0.5" stroke-linecap="round" stroke-linejoin="round" stroke-miterlimit="10" points="
		40.197,4.795 45.029,4.795 40.725,15.595 	"/>
	
		<polyline fill="none" stroke="#E73E21" stroke-width="0.5" stroke-linecap="round" stroke-linejoin="round" stroke-miterlimit="10" points="
		40.367,16.498 39.645,18.296 34.813,18.296 35.535,16.498 	"/>
	
		<line fill="none" stroke="#E73E21" stroke-width="0.5" stroke-linecap="round" stroke-linejoin="round" stroke-miterlimit="10" x1="35.893" y1="15.595" x2="40.197" y2="4.795"/>
	
		<line fill="none" stroke="#E73E21" stroke-width="0.5" stroke-linecap="round" stroke-linejoin="round" stroke-miterlimit="10" x1="51.662" y1="0.298" x2="54.693" y2="4.795"/>
	
		<line fill="none" stroke="#E73E21" stroke-width="0.5" stroke-linecap="round" stroke-linejoin="round" stroke-miterlimit="10" x1="23.358" y1="22.792" x2="21.566" y2="27.298"/>
	
		<line fill="none" stroke="#E73E21" stroke-width="0.5" stroke-linecap="round" stroke-linejoin="round" stroke-miterlimit="10" x1="21.566" y1="27.298" x2="16.735" y2="27.298"/>
	
		<line fill="none" stroke="#E73E21" stroke-width="0.5" stroke-linecap="round" stroke-linejoin="round" stroke-miterlimit="10" x1="13.695" y1="22.792" x2="11.903" y2="27.298"/>
	
		<line fill="none" stroke="#E73E21" stroke-width="0.5" stroke-linecap="round" stroke-linejoin="round" stroke-miterlimit="10" x1="11.903" y1="27.298" x2="5.547" y2="27.298"/>
	<path fill="none" stroke="#E73E21" stroke-width="0.5" stroke-linecap="round" stroke-linejoin="round" stroke-miterlimit="10" d="
		M3.693,26.306c0.419,0.617,1.114,0.992,1.854,0.992"/>
	
		<line fill="none" stroke="#E73E21" stroke-width="0.5" stroke-linecap="round" stroke-linejoin="round" stroke-miterlimit="10" x1="101.217" y1="9.302" x2="96.385" y2="9.302"/>
	
		<line fill="none" stroke="#E73E21" stroke-width="0.5" stroke-linecap="round" stroke-linejoin="round" stroke-miterlimit="10" x1="96.385" y1="9.302" x2="92.803" y2="18.296"/>
	
		<line fill="none" stroke="#E73E21" stroke-width="0.5" stroke-linecap="round" stroke-linejoin="round" stroke-miterlimit="10" x1="95.842" y1="22.792" x2="94.041" y2="27.298"/>
	
		<line fill="none" stroke="#E73E21" stroke-width="0.5" stroke-linecap="round" stroke-linejoin="round" stroke-miterlimit="10" x1="94.041" y1="27.298" x2="82.862" y2="27.298"/>
	<path fill="none" stroke="#E73E21" stroke-width="0.5" stroke-linecap="round" stroke-linejoin="round" stroke-miterlimit="10" d="
		M80.999,26.306c0.42,0.617,1.114,0.992,1.863,0.992"/>
	
		<line fill="none" stroke="#E73E21" stroke-width="0.5" stroke-linecap="round" stroke-linejoin="round" stroke-miterlimit="10" x1="127.176" y1="4.795" x2="118.77" y2="25.887"/>
	<path fill="none" stroke="#E73E21" stroke-width="0.5" stroke-linecap="round" stroke-linejoin="round" stroke-miterlimit="10" d="
		M116.684,27.298c0.919,0,1.738-0.562,2.086-1.411"/>
	
		<line fill="none" stroke="#E73E21" stroke-width="0.5" stroke-linecap="round" stroke-linejoin="round" stroke-miterlimit="10" x1="116.684" y1="27.298" x2="98.873" y2="27.298"/>
	
		<line fill="none" stroke="#E73E21" stroke-width="0.5" stroke-linecap="round" stroke-linejoin="round" stroke-miterlimit="10" x1="127.862" y1="27.298" x2="136.01" y2="27.298"/>
	<path fill="none" stroke="#E73E21" stroke-width="0.5" stroke-linecap="round" stroke-linejoin="round" stroke-miterlimit="10" d="
		M136.01,27.298c0.919,0,1.748-0.562,2.087-1.411"/>
	
		<line fill="none" stroke="#E73E21" stroke-width="0.5" stroke-linecap="round" stroke-linejoin="round" stroke-miterlimit="10" x1="138.097" y1="25.887" x2="144.711" y2="9.302"/>
	
		<line fill="none" stroke="#E73E21" stroke-width="0.5" stroke-linecap="round" stroke-linejoin="round" stroke-miterlimit="10" x1="144.711" y1="9.302" x2="149.543" y2="9.302"/>
	
		<line fill="none" stroke="#E73E21" stroke-width="0.5" stroke-linecap="round" stroke-linejoin="round" stroke-miterlimit="10" x1="149.543" y1="9.302" x2="150.104" y2="7.89"/>
	<path fill="none" stroke="#E73E21" stroke-width="0.5" stroke-linecap="round" stroke-linejoin="round" stroke-miterlimit="10" d="
		M150.104,7.89c0.276-0.699,0.197-1.483-0.223-2.102"/>
	
		<line fill="none" stroke="#E73E21" stroke-width="0.5" stroke-linecap="round" stroke-linejoin="round" stroke-miterlimit="10" x1="54.693" y1="4.795" x2="46.287" y2="25.887"/>
	<path fill="none" stroke="#E73E21" stroke-width="0.5" stroke-linecap="round" stroke-linejoin="round" stroke-miterlimit="10" d="
		M44.209,27.298c0.91,0,1.738-0.562,2.078-1.411"/>
	
		<line fill="none" stroke="#E73E21" stroke-width="0.5" stroke-linecap="round" stroke-linejoin="round" stroke-miterlimit="10" x1="44.209" y1="27.298" x2="26.398" y2="27.298"/>
	
		<line fill="none" stroke="#E73E21" stroke-width="0.5" stroke-linecap="round" stroke-linejoin="round" stroke-miterlimit="10" x1="55.388" y1="27.298" x2="63.536" y2="27.298"/>
	<path fill="none" stroke="#E73E21" stroke-width="0.5" stroke-linecap="round" stroke-linejoin="round" stroke-miterlimit="10" d="
		M63.536,27.298c0.919,0,1.737-0.562,2.076-1.411"/>
	
		<line fill="none" stroke="#E73E21" stroke-width="0.5" stroke-linecap="round" stroke-linejoin="round" stroke-miterlimit="10" x1="65.612" y1="25.887" x2="72.228" y2="9.302"/>
	
		<line fill="none" stroke="#E73E21" stroke-width="0.5" stroke-linecap="round" stroke-linejoin="round" stroke-miterlimit="10" x1="72.228" y1="9.302" x2="77.06" y2="9.302"/>
	
		<line fill="none" stroke="#E73E21" stroke-width="0.5" stroke-linecap="round" stroke-linejoin="round" stroke-miterlimit="10" x1="77.06" y1="9.302" x2="77.631" y2="7.89"/>
	<path fill="none" stroke="#E73E21" stroke-width="0.5" stroke-linecap="round" stroke-linejoin="round" stroke-miterlimit="10" d="
		M77.631,7.89c0.275-0.699,0.187-1.483-0.233-2.102"/>
	
		<line fill="none" stroke="#E73E21" stroke-width="0.5" stroke-linecap="round" stroke-linejoin="round" stroke-miterlimit="10" x1="27.496" y1="0.298" x2="30.534" y2="4.795"/>
	
		<line fill="none" stroke="#E73E21" stroke-width="0.5" stroke-linecap="round" stroke-linejoin="round" stroke-miterlimit="10" x1="17.833" y1="0.298" x2="20.872" y2="4.795"/>
	
		<line fill="none" stroke="#E73E21" stroke-width="0.5" stroke-linecap="round" stroke-linejoin="round" stroke-miterlimit="10" x1="13.695" y1="22.792" x2="16.735" y2="27.298"/>
	
		<line fill="none" stroke="#E73E21" stroke-width="0.5" stroke-linecap="round" stroke-linejoin="round" stroke-miterlimit="10" x1="23.358" y1="22.792" x2="26.398" y2="27.298"/>
	
		<line fill="none" stroke="#E73E21" stroke-width="0.5" stroke-linecap="round" stroke-linejoin="round" stroke-miterlimit="10" x1="52.348" y1="22.792" x2="55.388" y2="27.298"/>
	
		<line fill="none" stroke="#E73E21" stroke-width="0.5" stroke-linecap="round" stroke-linejoin="round" stroke-miterlimit="10" x1="92.803" y1="18.296" x2="95.842" y2="22.792"/>
	
		<line fill="none" stroke="#E73E21" stroke-width="0.5" stroke-linecap="round" stroke-linejoin="round" stroke-miterlimit="10" x1="99.978" y1="0.298" x2="103.019" y2="4.795"/>
	
		<line fill="none" stroke="#E73E21" stroke-width="0.5" stroke-linecap="round" stroke-linejoin="round" stroke-miterlimit="10" x1="114.474" y1="0.298" x2="117.513" y2="4.795"/>
	
		<line fill="none" stroke="#E73E21" stroke-width="0.5" stroke-linecap="round" stroke-linejoin="round" stroke-miterlimit="10" x1="124.136" y1="0.298" x2="127.176" y2="4.795"/>
	
		<line fill="none" stroke="#E73E21" stroke-width="0.5" stroke-linecap="round" stroke-linejoin="round" stroke-miterlimit="10" x1="127.176" y1="4.795" x2="130.216" y2="9.302"/>
	
		<line fill="none" stroke="#E73E21" stroke-width="0.5" stroke-linecap="round" stroke-linejoin="round" stroke-miterlimit="10" x1="124.831" y1="22.792" x2="127.862" y2="27.298"/>
	
		<line fill="none" stroke="#E73E21" stroke-width="0.5" stroke-linecap="round" stroke-linejoin="round" stroke-miterlimit="10" x1="95.842" y1="22.792" x2="98.873" y2="27.298"/>
	
		<line fill="none" stroke="#E73E21" stroke-width="0.5" stroke-linecap="round" stroke-linejoin="round" stroke-miterlimit="10" x1="0.653" y1="21.81" x2="3.693" y2="26.306"/>
	
		<polyline fill="none" stroke="#E73E21" stroke-width="0.5" stroke-linecap="round" stroke-linejoin="round" stroke-miterlimit="10" points="
		74.367,1.29 74.376,1.309 77.397,5.788 	"/>
	
		<polyline fill="none" stroke="#E73E21" stroke-width="0.5" stroke-linecap="round" stroke-linejoin="round" stroke-miterlimit="10" points="
		77.969,21.81 77.986,21.846 80.999,26.306 	"/>
	
		<polyline fill="none" stroke="#E73E21" stroke-width="0.5" stroke-linecap="round" stroke-linejoin="round" stroke-miterlimit="10" points="
		146.841,1.29 146.869,1.326 149.881,5.788 	"/>
	
		<line fill="none" stroke="#E73E21" stroke-width="0.5" stroke-linecap="round" stroke-linejoin="round" stroke-miterlimit="10" x1="137.366" y1="15.595" x2="127.703" y2="15.595"/>
	
		<line fill="none" stroke="#E73E21" stroke-width="0.5" stroke-linecap="round" stroke-linejoin="round" stroke-miterlimit="10" x1="118.039" y1="15.595" x2="113.206" y2="15.595"/>
	
		<line fill="none" stroke="#E73E21" stroke-width="0.5" stroke-linecap="round" stroke-linejoin="round" stroke-miterlimit="10" x1="108.374" y1="15.595" x2="98.712" y2="15.595"/>
	
		<line fill="none" stroke="#E73E21" stroke-width="0.5" stroke-linecap="round" stroke-linejoin="round" stroke-miterlimit="10" x1="89.049" y1="15.595" x2="79.377" y2="15.595"/>
	
		<line fill="none" stroke="#E73E21" stroke-width="0.5" stroke-linecap="round" stroke-linejoin="round" stroke-miterlimit="10" x1="64.882" y1="15.595" x2="55.219" y2="15.595"/>
	
		<line fill="none" stroke="#E73E21" stroke-width="0.5" stroke-linecap="round" stroke-linejoin="round" stroke-miterlimit="10" x1="45.556" y1="15.595" x2="40.725" y2="15.595"/>
	
		<line fill="none" stroke="#E73E21" stroke-width="0.5" stroke-linecap="round" stroke-linejoin="round" stroke-miterlimit="10" x1="35.893" y1="15.595" x2="26.229" y2="15.595"/>
	
		<line fill="none" stroke="#E73E21" stroke-width="0.5" stroke-linecap="round" stroke-linejoin="round" stroke-miterlimit="10" x1="21.398" y1="15.595" x2="2.071" y2="15.595"/>
	
		<polyline fill="none" stroke="#E73E21" stroke-width="0.5" stroke-linecap="round" stroke-linejoin="round" stroke-miterlimit="10" points="
		137.009,16.498 128.309,16.498 127.346,16.498 	"/>
	
		<polyline fill="none" stroke="#E73E21" stroke-width="0.5" stroke-linecap="round" stroke-linejoin="round" stroke-miterlimit="10" points="
		117.674,16.498 113.206,16.498 112.842,16.498 	"/>
	
		<polyline fill="none" stroke="#E73E21" stroke-width="0.5" stroke-linecap="round" stroke-linejoin="round" stroke-miterlimit="10" points="
		108.011,16.498 99.319,16.498 98.346,16.498 	"/>
	
		<polyline fill="none" stroke="#E73E21" stroke-width="0.5" stroke-linecap="round" stroke-linejoin="round" stroke-miterlimit="10" points="
		88.684,16.498 79.992,16.498 79.021,16.498 	"/>
	
		<polyline fill="none" stroke="#E73E21" stroke-width="0.5" stroke-linecap="round" stroke-linejoin="round" stroke-miterlimit="10" points="
		64.524,16.498 55.825,16.498 54.861,16.498 	"/>
	
		<polyline fill="none" stroke="#E73E21" stroke-width="0.5" stroke-linecap="round" stroke-linejoin="round" stroke-miterlimit="10" points="
		45.198,16.498 40.725,16.498 40.367,16.498 	"/>
	
		<polyline fill="none" stroke="#E73E21" stroke-width="0.5" stroke-linecap="round" stroke-linejoin="round" stroke-miterlimit="10" points="
		35.535,16.498 26.229,16.498 25.873,16.498 	"/>
	
		<polyline fill="none" stroke="#E73E21" stroke-width="0.5" stroke-linecap="round" stroke-linejoin="round" stroke-miterlimit="10" points="
		21.041,16.498 2.678,16.498 1.716,16.498 	"/>
	
		<line fill="none" stroke="#E73E21" stroke-width="0.5" stroke-linecap="round" stroke-linejoin="round" stroke-miterlimit="10" x1="2.071" y1="15.595" x2="2.678" y2="16.498"/>
	
		<line fill="none" stroke="#E73E21" stroke-width="0.5" stroke-linecap="round" stroke-linejoin="round" stroke-miterlimit="10" x1="55.219" y1="15.595" x2="55.825" y2="16.498"/>
	
		<line fill="none" stroke="#E73E21" stroke-width="0.5" stroke-linecap="round" stroke-linejoin="round" stroke-miterlimit="10" x1="79.377" y1="15.595" x2="79.992" y2="16.498"/>
	
		<line fill="none" stroke="#E73E21" stroke-width="0.5" stroke-linecap="round" stroke-linejoin="round" stroke-miterlimit="10" x1="98.712" y1="15.595" x2="99.319" y2="16.498"/>
	
		<line fill="none" stroke="#E73E21" stroke-width="0.5" stroke-linecap="round" stroke-linejoin="round" stroke-miterlimit="10" x1="127.703" y1="15.595" x2="128.309" y2="16.498"/>
	
		<line fill="none" stroke="#E73E21" stroke-width="0.5" stroke-linecap="round" stroke-linejoin="round" x1="54.693" y1="4.795" x2="57.726" y2="9.294"/>
	<polygon fill="#E73E21" points="131.878,4.799 130.085,9.298 130.078,9.298 127.046,4.799 	"/>
</g>
</svg>
