<?xml version="1.0" encoding="utf-8"?>
<!-- Generator: Adobe Illustrator 16.0.0, SVG Export Plug-In . SVG Version: 6.00 Build 0)  -->
<!DOCTYPE svg PUBLIC "-//W3C//DTD SVG 1.1//EN" "http://www.w3.org/Graphics/SVG/1.1/DTD/svg11.dtd">
<svg version="1.1" id="Ebene_1" xmlns="http://www.w3.org/2000/svg" xmlns:xlink="http://www.w3.org/1999/xlink" x="0px" y="0px"
	 width="12.5px" height="19px" viewBox="0 0 12.5 19" enable-background="new 0 0 12.5 19" xml:space="preserve">
<g>
	<path fill="#F6F6F6" d="M7.006,0.5v10.375v0.314l0.283,0.136c1.348,0.648,2.055,2.149,2.055,3.298c0,2.138-1.854,3.877-4.131,3.877
		c-2.28,0-4.135-1.739-4.135-3.877c0-1.119,0.723-2.654,2.063-3.297l0.283-0.137v-0.314V0.5H7.006 M7.506,0H2.923v10.875
		c-1.506,0.723-2.346,2.416-2.346,3.748C0.578,17.039,2.654,19,5.212,19c2.557,0,4.631-1.961,4.631-4.377
		c0-1.366-0.834-3.025-2.338-3.748V0L7.506,0z"/>
</g>
<line fill="none" stroke="#F6F6F6" stroke-width="0.5" stroke-miterlimit="10" x1="3.382" y1="6.139" x2="0.25" y2="6.139"/>
<line fill="none" stroke="#F6F6F6" stroke-width="0.5" stroke-miterlimit="10" x1="3.382" y1="8.629" x2="0.812" y2="8.629"/>
<line fill="none" stroke="#F6F6F6" stroke-width="0.5" stroke-miterlimit="10" x1="3.382" y1="3.702" x2="0.812" y2="3.702"/>
<ellipse fill="none" stroke="#F6F6F6" stroke-width="0.35" stroke-miterlimit="10" cx="10.766" cy="2.55" rx="1.484" ry="1.432"/>
</svg>
