<?xml version="1.0" encoding="UTF-8" standalone="no"?>
<!-- Generator: Adobe Illustrator 15.1.0, SVG Export Plug-In . SVG Version: 6.00 Build 0)  -->

<svg
   xmlns:dc="http://purl.org/dc/elements/1.1/"
   xmlns:cc="http://creativecommons.org/ns#"
   xmlns:rdf="http://www.w3.org/1999/02/22-rdf-syntax-ns#"
   xmlns:svg="http://www.w3.org/2000/svg"
   xmlns="http://www.w3.org/2000/svg"
   xmlns:sodipodi="http://sodipodi.sourceforge.net/DTD/sodipodi-0.dtd"
   xmlns:inkscape="http://www.inkscape.org/namespaces/inkscape"
   version="1.1"
   id="Ebene_1"
   x="0px"
   y="0px"
   width="1000px"
   height="500px"
   viewBox="0 0 1000 500"
   enable-background="new 0 0 1000 500"
   xml:space="preserve"
   inkscape:version="0.48.2 r9819"
   sodipodi:docname="SS14_hot_cut_signet.svg"><metadata
   id="metadata3080"><rdf:RDF><cc:Work
       rdf:about=""><dc:format>image/svg+xml</dc:format><dc:type
         rdf:resource="http://purl.org/dc/dcmitype/StillImage" /></cc:Work></rdf:RDF></metadata><defs
   id="defs3078" /><sodipodi:namedview
   pagecolor="#ffffff"
   bordercolor="#666666"
   borderopacity="1"
   objecttolerance="10"
   gridtolerance="10"
   guidetolerance="10"
   inkscape:pageopacity="0"
   inkscape:pageshadow="2"
   inkscape:window-width="2243"
   inkscape:window-height="1399"
   id="namedview3076"
   showgrid="false"
   inkscape:zoom="1.4038296"
   inkscape:cx="615.80269"
   inkscape:cy="261.90021"
   inkscape:window-x="0"
   inkscape:window-y="0"
   inkscape:window-maximized="0"
   inkscape:current-layer="Ebene_1" />
<g
   id="g3054">
	
</g>
<g
   id="g3058">
	
	<g
   id="g3062">
		
		
	</g>
	
	
	
	<path
   style="fill:none;stroke:#000000;stroke-width:0.25"
   d="m 80.815878,413.121 9.806122,0 0.461,-53.156 38.407,0 -0.309,37.023 26.734,0 0.306,-37.023 38.407,0 -0.384,53.156 7.13712,-0.003 12.01488,0.004 c 0.128,-8.071 1.669,-15.428 4.661,-22.047 3.123,-6.914 7.374,-12.803 12.75,-17.666 5.379,-4.863 11.703,-8.63 18.976,-11.293 7.27,-2.663 15.003,-3.994 23.198,-3.994 8.702,0 16.591,1.178 23.658,3.532 7.067,2.359 13.109,5.839 18.129,10.448 5.016,4.608 8.883,10.318 11.599,17.129 2.713,6.813 4.073,14.724 4.073,23.736 0,0.051 -0.004,0.102 -0.004,0.154 l 12.46612,0 26.37988,0 0.181,-22.121 -31.034,0 0,-31.035 100.626,0 0,31.035 -31.184,0 -0.137,22.121 75.022,0.002 20.822,0 c 0,-10e-4 0,-10e-4 0,-0.002 0,-9.011 1.637,-16.947 4.916,-23.811 3.279,-6.86 7.757,-12.6 13.443,-17.207 5.685,-4.609 12.264,-8.089 19.741,-10.448 7.477,-2.353 15.466,-3.532 23.968,-3.532 4.301,0 8.423,0.128 12.368,0.385 3.941,0.256 8.011,0.64 12.212,1.153 l -5.07,29.649 c -2.356,-0.203 -4.66,-0.331 -6.914,-0.385 -2.253,-0.05 -4.557,-0.078 -6.913,-0.078 -3.685,0 -7.142,0.538 -10.368,1.613 -3.225,1.078 -6.045,2.64 -8.452,4.688 -2.407,2.047 -4.301,4.556 -5.682,7.526 -1.81148,6.29784 -1.58778,6.37256 -2.071,10.449 l 1.69573,-0.002 59.37427,0 0.378,-53.156 38.408,0 -0.382,53.156 9.733,0 20.216,0 0.389,-53.156 33.648,0 -0.253,53.156 14.92,0 31.549,0 0.18,-22.121 -31.034,0 0,-31.035 100.626,0 0,31.035 -31.184,0 -0.137,22.121 38.784,0 c 4,-83.454 44.39,-152.917 70.767,-179.504 -29.51,19.826 -76.042,38.539 -130.142,56.752 -26.118,5.52 -60.846,18.847 -79.537,19.153 40.827,-35.625 86.132,-75.588 205.379,-103.167 -1.074,7.479 -20.537,18.368 -20.706,23.011 78.167,-48.234 87.201,-88.396 66.629,-125.316 -1.134,37.571 -61.566,81.153 -152.428,122.301 -31.036,14.054 -65.229,32.541 -107.938,39.06 4.671,-33.9 51.668,-68.742 147.779,-102.589 11.812,-30.579 17.188,-52.288 18.799,-77.974 0.32,-5.095 2.238,-21.464 -1.775,-18.398 -3.611,20.777 -19.565,50.273 -40.584,73.067 -48.996,38.509 -117.288,82.654 -186.293,122.702 -8.451,-28.445 18.517,-69.011 121.091,-100.866 27.755,-46.425 -1.913,-78.855 16.671,-121.623 -49.297,49.104 -6.594,84.471 -109.375,130.345 -0.403,-13.543 13.983,-36.614 9.732,-49.84 -17.355,44.794 -99.592,91.605 -97.721,135.46 0.773,18.59 16.237,57.897 19.951,75.708 -118.804,-61.537 -0.169,-147.938 10.469,-148.553 10.651,-39.062 -30.727,-71.562 -21.12,-111.063 -28.94,30.085 -12.579,51.501 -16.077,75.542 -3.628,24.836 -48.217,51.081 -88.736,82.962 -40.519,31.881 -68.854,76.765 -84.966,108.451 -16.695,-46.933 51.521,-115.344 81.406,-133.053 29.885,-17.709 39.43,-35.518 39.9,-51.348 0.629,-21.341 -5.027,-40.304 5.977,-63.157 10.441,-21.682 34.384,-42.999 66.301,-66.143 -95.811,45.474 -178.253,95.938 -175.623,136.453 0.459,6.89 0.07,15.494 15.145,17.525 14.33,-10.657 24.444,-21.604 48.859,-31.611 10.114,22.51 3.719,51.184 -72.686,79.663 -7.747,-4.219 -2.932,-9.753 -13.385,-11.32 -34.023,36.535 10.163,81.463 -82.684,128.622 -7.202,-8.631 2.63,-22.889 -4.781,-29.037 -8.147,10.308 -17.253,22.938 -22.679,36.223 0,0 14.685,-66.726 36.077,-97.139 2.061,-2.644 -25.068,33.164 -57.694,48.438 -27.395,-39.354 50.81,-128.385 74.744,-132.623 11.82,6.852 11.095,21.035 25.307,29.515 1.096,-32.197 13.306,-72.299 40.959,-107.852 -28.878,24.793 -73.209,48.588 -105.105,73.186 -84.732,51.758 -93.828,89.089 -94.021,136.58 -0.081,20.084 5.03,34.511 1.443,51.458 0.71,0.126 -69.279,-11.889 -61.475,-35.367 12.03,-0.854 11.672,4.745 24.753,3.354 -27.279,-49.185 -0.97,-88.792 48.996,-139.529 -47.172,34.417 -92.844,72.578 -109.698,105.085 -10.619,20.493 -26.963675,65.0984 -13.630675,139.8864 l 177.524395,-0.0289 c 0,0 -0.86376,-9.69441 -0.89972,-13.40148 -0.036,-3.70707 0.295,-5.314 0.746,-8.065 0.513,-3.123 1.406,-5.938 2.688,-8.449 1.281,-2.51 3.097,-4.557 5.454,-6.147 2.357,-1.585 5.379,-2.379 9.064,-2.379 3.382,0 6.145,0.716 8.295,2.15 2.153,1.435 3.841,3.304 5.07,5.607 1.231,2.304 2.075,4.892 2.535,7.758 0.463,2.869 0.694,5.686 0.694,8.448 0,0.356 0.10642,3.60488 -0.14892,6.93249 -0.25535,3.32762 -0.93544,7.55776 -0.93544,7.55776 181.53422,-0.77618 362.96691,-0.11036 544.041,-0.11036"
   id="polygon3074"
   inkscape:connector-curvature="0"
   sodipodi:nodetypes="ccccccccccccccscccsccccccccccccscccsccccsccccccccccccccccccccccccccccccccccccccccccccccscsccccccccccccccccccccccccczcccscccszcc" />
</g>
</svg>