<?xml version="1.0" encoding="UTF-8" standalone="no"?>
<!-- Created with Inkscape (http://www.inkscape.org/) -->

<svg
   xmlns:dc="http://purl.org/dc/elements/1.1/"
   xmlns:cc="http://creativecommons.org/ns#"
   xmlns:rdf="http://www.w3.org/1999/02/22-rdf-syntax-ns#"
   xmlns:svg="http://www.w3.org/2000/svg"
   xmlns="http://www.w3.org/2000/svg"
   xmlns:sodipodi="http://sodipodi.sourceforge.net/DTD/sodipodi-0.dtd"
   xmlns:inkscape="http://www.inkscape.org/namespaces/inkscape"
   width="436.88675"
   height="480.64001"
   id="svg2"
   version="1.1"
   inkscape:version="0.48.5 r10040"
   sodipodi:docname="SpiralFlower.svg">
  <defs
     id="defs4">
<inkscape:perspective
   sodipodi:type="inkscape:persp3d"
   inkscape:vp_x="0 : 526.18109 : 1"
   inkscape:vp_y="0 : 1000 : 0"
   inkscape:vp_z="744.09448 : 526.18109 : 1"
   inkscape:persp3d-origin="372.04724 : 350.78739 : 1"
   id="perspective8">
		</inkscape:perspective>

	
	
		
<inkscape:perspective
   sodipodi:type="inkscape:persp3d"
   inkscape:vp_x="0 : 526.18109 : 1"
   inkscape:vp_y="0 : 1000 : 0"
   inkscape:vp_z="744.09448 : 526.18109 : 1"
   inkscape:persp3d-origin="372.04724 : 350.78739 : 1"
   id="perspective8-9">
		</inkscape:perspective>

	
	
		</defs>
  <sodipodi:namedview
     id="base"
     pagecolor="#ffffff"
     bordercolor="#666666"
     borderopacity="1.0"
     inkscape:pageopacity="0.0"
     inkscape:pageshadow="2"
     inkscape:zoom="0.35"
     inkscape:cx="219.15628"
     inkscape:cy="222.92225"
     inkscape:document-units="px"
     inkscape:current-layer="layer1"
     showgrid="false"
     inkscape:window-width="1366"
     inkscape:window-height="706"
     inkscape:window-x="-8"
     inkscape:window-y="-8"
     inkscape:window-maximized="1"
     fit-margin-top="0"
     fit-margin-left="0"
     fit-margin-right="0"
     fit-margin-bottom="0" />
  <metadata
     id="metadata7">
    <rdf:RDF>
      <cc:Work
         rdf:about="">
        <dc:format>image/svg+xml</dc:format>
        <dc:type
           rdf:resource="http://purl.org/dc/dcmitype/StillImage" />
        <dc:title></dc:title>
      </cc:Work>
    </rdf:RDF>
  </metadata>
  <g
     inkscape:label="Calque 1"
     inkscape:groupmode="layer"
     id="layer1"
     transform="translate(-155.84372,-274.64443)">
    <g
       inkscape:label="Ebene 1"
       id="layer1-8"
       transform="translate(62.615273,88.127432)">
	<path
   d="M 307.222,667.157 308.05,517.369"
   id="path3222"
   inkscape:connector-curvature="0"
   style="fill:none;stroke:#000000;stroke-width:1.04340005" />

	<path
   d="m 308.05,517.369 c -4.342,-54.872 -52.74,-99.444 -108.468,-94.64 -49.045,4.229 -88.851,47.708 -84.106,97.605 4.11,43.218 42.677,78.265 86.742,73.571 37.392,-3.981 67.691,-37.647 63.038,-75.878 -3.841,-31.565 -32.623,-57.137 -65.015,-52.504 -25.741,3.681 -46.616,27.605 -41.971,54.151 3.485,19.917 22.607,36.159 43.288,31.437 14.092,-3.218 25.851,-17.671 20.903,-32.425 -2.766,-8.249 -13.041,-15.98 -21.562,-10.369 -3.145,2.07 -6.272,10.798 0.165,10.698"
   id="path3009-4-8"
   inkscape:connector-curvature="0"
   style="fill:none;stroke:#000000;stroke-width:1.04340005" />

	
		<path
   d="m 201.064,519.016 c 6.437,-0.099 3.31,8.628 0.165,10.699 -8.522,5.611 -18.796,-2.121 -21.562,-10.369 -4.948,-14.755 6.811,-29.208 20.903,-32.426 20.681,-4.722 39.803,11.521 43.289,31.438 4.645,26.546 -16.23,50.471 -41.971,54.151 -32.392,4.632 -61.173,-20.938 -65.015,-52.505 -4.652,-38.23 25.646,-71.896 63.039,-75.878 44.065,-4.692 82.632,30.354 86.741,73.572 4.745,49.897 -35.061,93.376 -84.106,97.604 -55.728,4.806 -104.125,-39.768 -108.468,-94.64 -4.872,-61.559 44.474,-114.88 105.173,-119.331"
   sodipodi:nodetypes="cssssssssssc"
   inkscape:connector-curvature="0"
   id="path3129"
   style="fill:none;stroke:#000000;stroke-width:1.04340005" />

	<path
   d="m 199.252,401.333 c 54.873,-4.343 99.446,-52.74 94.64,-108.469 -4.229,-49.045 -47.708,-88.851 -97.605,-84.105 -43.218,4.109 -78.265,42.677 -73.572,86.741 3.982,37.392 37.648,67.691 75.878,63.038 31.566,-3.841 57.137,-32.622 52.504,-65.015 -3.681,-25.74 -27.605,-46.615 -54.152,-41.971 -19.917,3.485 -36.159,22.608 -31.437,43.289 3.218,14.092 17.671,25.851 32.425,20.902 8.248,-2.766 15.98,-13.04 10.369,-21.562 -2.07,-3.145 -10.797,-6.272 -10.698,0.165"
   inkscape:connector-curvature="0"
   id="path3009-4-8-5"
   style="fill:none;stroke:#000000;stroke-width:1.04340005" />

	
		<path
   d="m 197.605,294.347 c 0.099,6.437 -8.628,3.309 -10.699,0.164 -5.611,-8.521 2.121,-18.796 10.369,-21.562 14.754,-4.948 29.208,6.811 32.425,20.902 4.722,20.681 -11.52,39.804 -31.437,43.289 -26.546,4.645 -50.471,-16.23 -54.151,-41.971 -4.632,-32.393 20.938,-61.174 52.504,-65.015 38.23,-4.653 71.896,25.646 75.878,63.038 4.693,44.064 -30.354,82.632 -73.572,86.741 -49.897,4.745 -93.376,-35.061 -97.605,-84.105 -4.805,-55.729 39.768,-104.126 94.64,-108.469 61.559,-4.871 114.88,44.475 119.332,105.174"
   sodipodi:nodetypes="cssssssssssc"
   inkscape:connector-curvature="0"
   id="path3129-5"
   style="fill:none;stroke:#000000;stroke-width:1.04340005" />

	<path
   d="m 315.29,292.535 c 4.342,54.872 52.739,99.445 108.468,94.64 49.045,-4.229 88.851,-47.707 84.105,-97.604 -4.109,-43.219 -42.677,-78.265 -86.741,-73.572 -37.392,3.982 -67.691,37.647 -63.038,75.878 3.841,31.566 32.622,57.137 65.015,52.505 25.741,-3.681 46.615,-27.605 41.971,-54.151 -3.485,-19.917 -22.607,-36.159 -43.288,-31.438 -14.093,3.218 -25.852,17.671 -20.903,32.426 2.767,8.248 13.04,15.98 21.562,10.369 3.145,-2.071 6.272,-10.798 -0.164,-10.699"
   inkscape:connector-curvature="0"
   id="path3009-4-8-5-1"
   style="fill:none;stroke:#000000;stroke-width:1.04340005" />

	
		<path
   d="m 422.275,290.887 c -6.438,0.1 -3.31,-8.628 -0.165,-10.698 8.521,-5.611 18.796,2.121 21.562,10.369 4.948,14.754 -6.811,29.207 -20.902,32.425 -20.681,4.723 -39.804,-11.52 -43.288,-31.437 -4.646,-26.546 16.229,-50.471 41.97,-54.151 32.393,-4.633 61.174,20.938 65.016,52.504 4.652,38.23 -25.646,71.896 -63.039,75.879 -44.064,4.692 -82.632,-30.354 -86.741,-73.572 -4.744,-49.897 35.061,-93.376 84.106,-97.605 55.728,-4.805 104.125,39.768 108.468,94.641 4.871,61.558 -44.474,114.879 -105.174,119.331"
   sodipodi:nodetypes="cssssssssssc"
   inkscape:connector-curvature="0"
   id="path3129-5-7"
   style="fill:none;stroke:#000000;stroke-width:1.04340005" />

	<path
   d="m 424.087,408.572 c -54.872,4.342 -99.445,52.739 -94.64,108.468 4.229,49.045 47.708,88.851 97.604,84.106 43.219,-4.11 78.265,-42.677 73.572,-86.742 -3.981,-37.392 -37.647,-67.69 -75.878,-63.038 -31.566,3.842 -57.137,32.623 -52.505,65.015 3.682,25.741 27.606,46.616 54.152,41.971 19.916,-3.484 36.159,-22.607 31.437,-43.288 -3.218,-14.092 -17.671,-25.851 -32.425,-20.903 -8.249,2.767 -15.98,13.04 -10.369,21.563 2.07,3.145 10.797,6.271 10.698,-0.165"
   inkscape:connector-curvature="0"
   id="path3009-4-8-5-1-1"
   style="fill:none;stroke:#000000;stroke-width:1.04340005" />

	
		<path
   d="m 425.734,515.557 c -0.1,-6.437 8.628,-3.31 10.698,-0.165 5.611,8.522 -2.12,18.796 -10.369,21.563 -14.754,4.947 -29.207,-6.812 -32.425,-20.903 -4.723,-20.681 11.52,-39.804 31.437,-43.288 26.546,-4.646 50.471,16.229 54.151,41.971 4.633,32.392 -20.938,61.173 -52.504,65.015 -38.23,4.652 -71.896,-25.646 -75.878,-63.038 -4.693,-44.065 30.354,-82.632 73.571,-86.742 49.897,-4.744 93.376,35.062 97.605,84.106 4.805,55.729 -39.768,104.126 -94.64,108.468 C 365.821,627.416 312.499,578.07 308.048,517.37"
   sodipodi:nodetypes="cssssssssssc"
   inkscape:connector-curvature="0"
   id="path3129-5-7-1"
   style="fill:none;stroke:#000000;stroke-width:1.04340005" />

	<path
   d="m 308.05,517.369 c 0,0 -6.621,-28.945 -9.389,-12.524 -15.085,89.502 -38.515,155.39 -38.515,155.39"
   sodipodi:nodetypes="csc"
   inkscape:connector-curvature="0"
   id="path3216"
   style="fill:none;stroke:#000000" />

</g>
  </g>
</svg>
