<?xml version="1.0" encoding="UTF-8" standalone="no"?>
<!-- Created with Inkscape (http://www.inkscape.org/) -->

<svg
   xmlns:dc="http://purl.org/dc/elements/1.1/"
   xmlns:cc="http://creativecommons.org/ns#"
   xmlns:rdf="http://www.w3.org/1999/02/22-rdf-syntax-ns#"
   xmlns:svg="http://www.w3.org/2000/svg"
   xmlns="http://www.w3.org/2000/svg"
   xmlns:sodipodi="http://sodipodi.sourceforge.net/DTD/sodipodi-0.dtd"
   xmlns:inkscape="http://www.inkscape.org/namespaces/inkscape"
   width="880.8269"
   height="401.75"
   id="svg2"
   version="1.1"
   inkscape:version="0.48.5 r10040"
   sodipodi:docname="SpiralFlower.svg">
  <defs
     id="defs4">
<inkscape:perspective
   sodipodi:type="inkscape:persp3d"
   inkscape:vp_x="0 : 526.18109 : 1"
   inkscape:vp_y="0 : 1000 : 0"
   inkscape:vp_z="744.09448 : 526.18109 : 1"
   inkscape:persp3d-origin="372.04724 : 350.78739 : 1"
   id="perspective8">
		</inkscape:perspective>

	
	
		
<inkscape:perspective
   sodipodi:type="inkscape:persp3d"
   inkscape:vp_x="0 : 526.18109 : 1"
   inkscape:vp_y="0 : 1000 : 0"
   inkscape:vp_z="744.09448 : 526.18109 : 1"
   inkscape:persp3d-origin="372.04724 : 350.78739 : 1"
   id="perspective8-9">
		</inkscape:perspective>

	
	
		<inkscape:perspective
   id="perspective8-4"
   inkscape:persp3d-origin="372.04724 : 350.78739 : 1"
   inkscape:vp_z="744.09448 : 526.18109 : 1"
   inkscape:vp_y="0 : 1000 : 0"
   inkscape:vp_x="0 : 526.18109 : 1"
   sodipodi:type="inkscape:persp3d" />
</defs>
  <sodipodi:namedview
     id="base"
     pagecolor="#ffffff"
     bordercolor="#666666"
     borderopacity="1.0"
     inkscape:pageopacity="0.0"
     inkscape:pageshadow="2"
     inkscape:zoom="0.35"
     inkscape:cx="333.86281"
     inkscape:cy="212.38467"
     inkscape:document-units="px"
     inkscape:current-layer="g3025"
     showgrid="false"
     inkscape:window-width="1366"
     inkscape:window-height="706"
     inkscape:window-x="-8"
     inkscape:window-y="-8"
     inkscape:window-maximized="1"
     fit-margin-top="0"
     fit-margin-left="0"
     fit-margin-right="0"
     fit-margin-bottom="0" />
  <metadata
     id="metadata7">
    <rdf:RDF>
      <cc:Work
         rdf:about="">
        <dc:format>image/svg+xml</dc:format>
        <dc:type
           rdf:resource="http://purl.org/dc/dcmitype/StillImage" />
        <dc:title></dc:title>
      </cc:Work>
    </rdf:RDF>
  </metadata>
  <g
     inkscape:label="Calque 1"
     inkscape:groupmode="layer"
     id="layer1"
     transform="translate(-41.137195,-342.99687)">
    <g
       id="layer1-1"
       inkscape:label="Calque 1"
       transform="translate(118.70086,162.92225)">
      <g
         transform="translate(-150.37059,155.13712)"
         id="g3025">
        <g
           id="g3054" />
        <g
           id="g3058">
          <g
             id="g3062" />
          <path
             style="fill:none;stroke:#000000;stroke-width:1;stroke-miterlimit:4;stroke-dasharray:none"
             id="polygon3074"
             inkscape:connector-curvature="0"
             sodipodi:nodetypes="ccccccccccccccscccsccccccccccccscccsccccsccccccccccccccccccccccccccccccccccccccccccccccscsccccccccccccccccccccccccczcccscccszcc"
             d="m 80.816,413.121 h 9.806 l 0.461,-53.156 h 38.407 l -0.309,37.023 h 26.734 l 0.306,-37.023 h 38.407 l -0.384,53.156 7.137,-0.003 12.015,0.004 c 0.128,-8.071 1.669,-15.428 4.661,-22.047 3.123,-6.914 7.374,-12.803 12.75,-17.666 5.379,-4.863 11.703,-8.63 18.976,-11.293 7.27,-2.663 15.003,-3.994 23.198,-3.994 8.702,0 16.591,1.178 23.658,3.532 7.067,2.359 13.109,5.839 18.128,10.448 5.017,4.607 8.884,10.317 11.6,17.129 2.713,6.813 4.073,14.724 4.073,23.735 0,0.052 -0.005,0.103 -0.005,0.154 h 12.467 26.38 L 369.463,391 H 338.429 V 359.965 H 439.055 V 391 h -31.184 l -0.137,22.121 75.021,0.002 h 20.822 c 0,-10e-4 0,-10e-4 0,-0.002 0,-9.011 1.637,-16.947 4.916,-23.811 3.279,-6.86 7.757,-12.601 13.443,-17.207 5.685,-4.609 12.264,-8.089 19.74,-10.448 7.478,-2.353 15.467,-3.532 23.969,-3.532 4.301,0 8.423,0.128 12.367,0.385 3.941,0.257 8.012,0.641 12.212,1.153 l -5.069,29.649 c -2.356,-0.203 -4.66,-0.331 -6.914,-0.386 -2.253,-0.05 -4.558,-0.077 -6.913,-0.077 -3.686,0 -7.143,0.537 -10.368,1.612 -3.225,1.078 -6.045,2.641 -8.452,4.688 -2.407,2.047 -4.301,4.556 -5.682,7.525 -1.812,6.298 -1.588,6.373 -2.071,10.449 l 1.696,-0.002 h 59.374 l 0.378,-53.156 h 38.408 l -0.382,53.156 h 9.732 20.216 l 0.39,-53.156 h 33.647 l -0.253,53.156 h 14.92 31.549 L 754.612,391 H 723.578 V 359.965 H 824.204 V 391 H 793.02 l -0.137,22.121 h 38.784 c 4,-83.454 44.39,-152.917 70.767,-179.504 -29.51,19.826 -76.042,38.539 -130.142,56.752 -26.118,5.521 -60.846,18.847 -79.537,19.153 40.827,-35.625 86.132,-75.588 205.379,-103.167 -1.074,7.479 -20.537,18.368 -20.706,23.011 78.167,-48.234 87.201,-88.396 66.629,-125.316 -1.134,37.571 -61.565,81.153 -152.428,122.302 -31.036,14.054 -65.229,32.541 -107.938,39.06 4.671,-33.899 51.668,-68.742 147.778,-102.589 11.813,-30.579 17.188,-52.288 18.799,-77.974 0.32,-5.096 2.238,-21.465 -1.774,-18.398 -3.611,20.777 -19.565,50.273 -40.584,73.067 -48.996,38.509 -117.288,82.653 -186.293,122.702 -8.451,-28.445 18.517,-69.012 121.091,-100.866 27.755,-46.425 -1.913,-78.855 16.671,-121.623 -49.297,49.104 -6.594,84.471 -109.375,130.345 -0.403,-13.543 13.983,-36.614 9.732,-49.84 -17.355,44.794 -99.593,91.604 -97.722,135.46 0.773,18.59 16.237,57.896 19.951,75.708 -118.804,-61.537 -0.169,-147.938 10.469,-148.553 10.651,-39.063 -30.727,-71.563 -21.12,-111.063 -28.939,30.085 -12.578,51.501 -16.076,75.542 -3.628,24.836 -48.218,51.081 -88.736,82.962 -40.52,31.881 -68.854,76.766 -84.966,108.451 -16.695,-46.933 51.521,-115.344 81.405,-133.053 29.886,-17.709 39.431,-35.519 39.9,-51.349 0.629,-21.341 -5.027,-40.304 5.978,-63.156 10.44,-21.683 34.384,-42.999 66.301,-66.144 -95.812,45.475 -178.253,95.938 -175.623,136.453 0.459,6.891 0.07,15.494 15.145,17.525 14.33,-10.657 24.444,-21.604 48.859,-31.611 10.114,22.51 3.719,51.185 -72.687,79.663 -7.746,-4.219 -2.932,-9.753 -13.385,-11.32 -34.022,36.535 10.163,81.463 -82.684,128.622 -7.202,-8.631 2.63,-22.889 -4.781,-29.037 -8.147,10.309 -17.253,22.938 -22.679,36.224 0,0 14.685,-66.727 36.077,-97.14 2.061,-2.644 -25.068,33.164 -57.694,48.438 -27.395,-39.354 50.81,-128.385 74.744,-132.623 11.82,6.852 11.095,21.035 25.307,29.515 1.097,-32.196 13.307,-72.299 40.959,-107.852 -28.878,24.793 -73.209,48.588 -105.105,73.186 -84.732,51.758 -93.828,89.089 -94.021,136.58 -0.081,20.084 5.03,34.511 1.443,51.458 0.71,0.126 -69.279,-11.889 -61.475,-35.367 12.03,-0.854 11.672,4.745 24.753,3.354 -27.279,-49.186 -0.97,-88.792 48.996,-139.529 -47.172,34.417 -92.844,72.578 -109.698,105.085 -10.619,20.493 -26.963,65.099 -13.63,139.887 l 177.524,-0.028 c 0,0 -0.864,-9.695 -0.9,-13.402 -0.036,-3.707 0.295,-5.313 0.746,-8.064 0.513,-3.123 1.406,-5.938 2.688,-8.449 1.281,-2.51 3.097,-4.558 5.454,-6.147 2.357,-1.585 5.379,-2.379 9.064,-2.379 3.382,0 6.145,0.716 8.295,2.15 2.153,1.435 3.841,3.304 5.07,5.606 1.231,2.305 2.075,4.893 2.535,7.759 0.463,2.868 0.694,5.686 0.694,8.447 0,0.356 0.106,3.605 -0.149,6.933 -0.255,3.328 -0.935,7.559 -0.935,7.559 181.534,-0.776 362.966,-0.11 544.041,-0.11" />
        </g>
      </g>
    </g>
  </g>
</svg>
